<svg xmlns="http://www.w3.org/2000/svg" viewBox="0 0 40 40" id="zara">
  <path d="M33.46 25.94 29 13.7h-.09L28 16.21l-1.67 4.57a4.34 4.34 0 0 0-2.42-1h-.31.31c1.69-.3 2.83-1.37 2.83-2.66 0-1.77-1.66-3-4-3h-4.98v.09h1.44v9.13l-3.49-9.64h-.1l-.91 2.52-3.53 9.68H7.14l6.78-11.75.08-.05H5.67v3.64h.09a3.29 3.29 0 0 1 3.32-3.55h2.75L5 26h9.2v-3.46h-.08a3.25 3.25 0 0 1-2.79 3.34h-.06l1.45-4h4l1.46 4h-1.39V26h5.66v-.08H21v-6.05h1.67c1.7 0 2.68.76 2.68 2.08v1.48l-.9 2.47h-1.16v.1h2.43v-.08h-1.16l.82-2.25V24.01a2.69 2.69 0 0 0 .94 1.81l.07.05a2.33 2.33 0 0 0 1.37.39 2 2 0 0 0 1.58-.6l-.05-.05a1.44 1.44 0 0 1-1.05.47c-.64 0-1-.78-1-1.56v-1.46a3.47 3.47 0 0 0-.18-1.1v-.05h3l1.46 4H30.1V26H35v-.08Zm-20.71-4.12 2-5.49 2 5.49Zm8.25-2v-5.63h1.28c1.7 0 2.6 1 2.6 2.93s-.51 2.66-2.21 2.66Zm6.08 2a2.72 2.72 0 0 0-.56-.86l-.09-.08 1.65-4.52 2 5.49Z"></path>
</svg>
